# xmcd
#
# Track frame offsets:
#	150
#	15227
#	30032
#	42777
#	57495
#	70862
#	85670
#	98362
#	111842
#	125452
#	140345
#	154595
#	168940
#	183547
#	198905
#	214320
#	227797
#	242845
#	257307
#	272045
#
# Disc length: 3819 seconds
#
# Revision: 2
# Processed by: cddbd v1.5.2PL0 Copyright (c) Steve Scherf et al.
# Submitted via: audiograbber 1.83.01
#
DISCID=fb0ee914
DTITLE=Παπασιδέρης Γιώργος - Ο Γιώργος Παπασιδέρης τραγουδά Αμανέδες και Ρεμπέτ
DTITLE=ικα
DYEAR=1900
DGENRE=Rebetika
TTITLE0=Γκαζελί Σιρφ Χιτζασκιάρ
TTITLE1=Το έξυπνο κορίτσι(Ρεμπέτικο)
TTITLE2=Γκαζελί Μουσταάρ Μανές
TTITLE3=Μανές της φυλακής
TTITLE4=Ράστ
TTITLE5=Ουσάκ Νινή Μανές
TTITLE6=Ουσάκ
TTITLE7=Χετζάζ
TTITLE8=Γκιουζέλ Σαμπάχ
TTITLE9=Μας φέρθηκες μπαμπέσικα
TTITLE10=Το κόλπο σου δεν έπιασε
TTITLE11=Χιτζασκιάρ Μανές
TTITLE12=Σουζινάκ Μανές
TTITLE13=Ραστ Αραβί Μανές
TTITLE14=Σεβνταλή Μανές
TTITLE15=Πειραιώτικος Μανές
TTITLE16=Χουζάμ Μανές
TTITLE17=Γκιουζέλ Πειραιώτικος
TTITLE18=Σεγκιάχ Μανές
TTITLE19=Νεβασίρ Μανές
EXTD=
EXTT0=
EXTT1=
EXTT2=
EXTT3=
EXTT4=
EXTT5=
EXTT6=
EXTT7=
EXTT8=
EXTT9=
EXTT10=
EXTT11=
EXTT12=
EXTT13=
EXTT14=
EXTT15=
EXTT16=
EXTT17=
EXTT18=
EXTT19=
PLAYORDER=
